<?xml version="1.0" encoding="UTF-8" standalone="no"?>
<!-- Created with Inkscape (http://www.inkscape.org/) -->

<svg
   width="128"
   height="128"
   viewBox="0 0 128 128"
   version="1.1"
   id="svg1"
   inkscape:version="1.4 (86a8ad7, 2024-10-11)"
   sodipodi:docname="studio_icon.svg"
   xmlns:inkscape="http://www.inkscape.org/namespaces/inkscape"
   xmlns:sodipodi="http://sodipodi.sourceforge.net/DTD/sodipodi-0.dtd"
   xmlns="http://www.w3.org/2000/svg"
   xmlns:svg="http://www.w3.org/2000/svg">
  <sodipodi:namedview
     id="namedview1"
     pagecolor="#505050"
     bordercolor="#eeeeee"
     borderopacity="1"
     inkscape:showpageshadow="0"
     inkscape:pageopacity="0"
     inkscape:pagecheckerboard="false"
     inkscape:deskcolor="#505050"
     inkscape:document-units="px"
     showguides="true"
     inkscape:zoom="6.8766134"
     inkscape:cx="63.476012"
     inkscape:cy="57.513775"
     inkscape:window-width="2560"
     inkscape:window-height="1369"
     inkscape:window-x="-8"
     inkscape:window-y="379"
     inkscape:window-maximized="1"
     inkscape:current-layer="layer1" />
  <defs
     id="defs1">
    <inkscape:path-effect
       effect="skeletal"
       id="path-effect117"
       is_visible="true"
       lpeversion="1"
       pattern="M 0,18.867925 C 0,8.4528302 8.4528302,0 18.867925,0 c 10.415094,0 18.867924,8.4528302 18.867924,18.867925 0,10.415094 -8.45283,18.867924 -18.867924,18.867924 C 8.4528302,37.735849 0,29.283019 0,18.867925 Z"
       copytype="single_stretched"
       prop_scale="0.22304263"
       scale_y_rel="false"
       spacing="0"
       normal_offset="0"
       tang_offset="0"
       prop_units="false"
       vertical_pattern="false"
       hide_knot="false"
       fuse_tolerance="0" />
  </defs>
  <g
     inkscape:label="Layer 1"
     inkscape:groupmode="layer"
     id="layer1">
    <path
       d="m 55.300205,9.3006523 a 4.5080328,2.0358858 24.23328 0 1 -4.338473,-0.125809 2.6902778,2.6175675 24.23328 0 1 -1.553909,0.8255667 1.9631757,3.9990616 24.23328 0 1 -8.2e-4,0.0018 1.9631757,3.9990616 24.23328 0 1 -8.21e-4,0.0018 1.9631757,3.9990616 24.23328 0 1 -8.21e-4,0.0018 1.9631757,3.9990616 24.23328 0 1 -8.21e-4,0.0018 1.9631757,3.9990616 24.23328 0 1 -8.21e-4,0.0018 1.9631757,3.9990616 24.23328 0 1 -8.21e-4,0.0018 1.9631757,3.9990616 24.23328 0 1 -8.21e-4,0.0018 1.9631757,3.9990616 24.23328 0 1 -8.21e-4,0.0018 1.9631757,3.9990616 24.23328 0 1 -8.21e-4,0.0018 1.9631757,3.9990616 24.23328 0 1 -8.21e-4,0.0018 1.9631757,3.9990616 24.23328 0 1 -8.21e-4,0.0018 1.9631757,3.9990616 24.23328 0 1 -8.2e-4,0.0018 1.9631757,3.9990616 24.23328 0 1 -3.285597,2.845519 l -1.087058,2.415061 a 1.5996246,4.5080328 24.23328 0 1 -0.664251,4.511632 1.5996246,4.5080328 24.23328 0 1 -2.905566,3.419247 l -1.172036,2.603851 a 1.3087838,2.472147 24.23328 0 1 10e-4,0.0026 1.3087838,2.472147 24.23328 0 1 -0.199804,2.413901 1.3087838,2.472147 24.23328 0 1 -1.650617,1.692328 l -0.991661,2.203121 a 1.3814939,2.399437 24.23328 0 1 -0.06142,2.463339 1.3814939,2.399437 24.23328 0 1 -1.774396,1.615195 l -1.226548,2.724959 a 1.6723348,4.2171922 24.23328 0 1 -0.317911,4.451197 1.6723348,4.2171922 24.23328 0 1 -3.105201,3.153756 l -1.055794,2.345602 a 1.5996246,2.0358858 24.23328 0 1 0.108535,2.085764 1.5996246,2.0358858 24.23328 0 1 -1.616468,1.264333 l -0.670993,1.490713 a 1.9631757,3.9263513 24.23328 0 1 -0.166397,4.114585 1.9631757,3.9263513 24.23328 0 1 -2.943264,2.793989 l -0.669391,1.487151 a 1.8904654,2.399437 24.23328 0 1 0.213573,2.561416 1.8904654,2.399437 24.23328 0 1 -2.030949,1.476155 l -0.657366,1.460436 a 1.4542042,2.1813064 24.23328 0 1 0.139499,2.373858 1.4542042,2.1813064 24.23328 0 1 -1.842236,1.409026 l -1.204904,2.676872 a 1.7450451,2.9084084 24.23328 0 1 0.220808,3.254354 1.7450451,2.9084084 24.23328 0 1 -0.04114,0.06285 2.5448573,2.9084084 24.23328 0 1 0.446652,1.415479 3.0538287,2.472147 24.23328 0 1 1.685789,2.949929 l 2.315324,1.042165 a 2.9811187,1.7450451 24.23328 0 1 3.416802,-0.353307 2.9811187,1.7450451 24.23328 0 1 2.008183,2.795181 l 3.854126,1.734804 a 2.2540164,2.1813064 24.23328 0 1 2.937397,-1.048872 2.2540164,2.1813064 24.23328 0 1 1.166072,2.89591 l 2.213806,0.99647 a 2.8356981,1.8177552 24.23328 0 1 3.143757,-0.317713 2.8356981,1.8177552 24.23328 0 1 1.907214,2.591236 l 2.744551,1.235367 a 2.9811187,1.8177552 24.23328 0 1 2.79978,0.165731 2.9811187,1.8177552 24.23328 0 1 2.00719,1.997964 l 1.797049,0.808884 a 3.6355104,1.6723348 24.23328 0 1 3.927405,0.035 3.6355104,1.6723348 24.23328 0 1 2.65168,2.92633 l 3.175557,1.429372 a 2.3267267,1.5996246 24.23328 0 1 2.539873,-0.2704 2.3267267,1.5996246 24.23328 0 1 1.552909,2.11263 l 1.946655,0.87622 a 3.3446696,2.0358858 24.23328 0 1 3.515989,-0.15017 3.3446696,2.0358858 24.23328 0 1 2.313287,2.77402 l 2.276142,1.02453 a 2.2540164,1.9631757 24.23328 0 1 2.69727,-0.67718 2.2540164,1.9631757 24.23328 0 1 1.322491,2.48654 l 2.32423,1.04617 a 3.4173799,1.6723348 24.23328 0 1 3.719026,-0.0588 3.4173799,1.6723348 24.23328 0 1 1.16228,0.67737 1.8904654,3.0538287 24.23328 0 1 0.898346,-0.58732 1.6723348,3.1992493 24.23328 0 1 0.1947,-0.67059 1.6723348,3.1992493 24.23328 0 1 2.261045,-2.20148 l 0.929933,-2.06598 a 2.3267267,3.0538287 24.23328 0 1 -0.307105,-3.20538 2.3267267,3.0538287 24.23328 0 1 2.602273,-1.893682 l 1.135158,-2.52192 a 2.1813064,3.3446696 24.23328 0 1 -0.288188,-3.59954 2.1813064,3.3446696 24.23328 0 1 2.884783,-2.169186 l 1.230557,-2.733865 a 1.6723348,2.399437 24.23328 0 1 -0.152665,-2.482595 1.6723348,2.399437 24.23328 0 1 1.960417,-1.533603 l 0.86741,-1.927063 a 1.9631757,3.4173799 24.23328 0 1 -0.12273,-3.615014 1.9631757,3.4173799 24.23328 0 1 2.78666,-2.303313 l 1.00128,-2.224493 a 1.7450451,3.4173799 24.23328 0 1 0.11779,-3.440356 1.7450451,3.4173799 24.23328 0 1 2.49805,-2.37111 l 0.78723,-1.748961 a 1.8177552,2.6902778 24.23328 0 1 -0.38647,-3.029058 1.8177552,2.6902778 24.23328 0 1 2.52291,-1.717359 l 0.50024,-1.111356 a 2.0358858,2.9084084 24.23328 0 1 -0.4397,-3.262921 2.0358858,2.9084084 24.23328 0 1 2.73407,-1.834355 l 0.60044,-1.333984 a 1.6723348,3.1992493 24.23328 0 1 -0.15799,-3.536648 1.6723348,3.1992493 24.23328 0 1 2.75138,-2.224949 l 0.88424,-1.964464 a 1.9631757,2.6902778 24.23328 0 1 -0.2262,-0.01614 1.9631757,2.6902778 24.23328 0 1 -0.68603,-3.258137 1.9631757,2.6902778 24.23328 0 1 1.42751,-1.48218 3.4900901,2.1085961 24.23328 0 1 -0.93798,-2.189236 3.4173799,1.9631757 24.23328 0 1 -1.5972,-2.727994 3.4173799,1.9631757 24.23328 0 1 0.50757,-0.437656 L 114.241,35.831127 a 2.8356981,1.7450451 24.23328 0 1 -0.0865,0.387292 2.8356981,1.7450451 24.23328 0 1 -3.30273,0.428214 2.8356981,1.7450451 24.23328 0 1 -1.86935,-2.75625 2.8356981,1.7450451 24.23328 0 1 0.3127,-0.28548 l -2.57358,-1.158407 a 3.0538287,1.7450451 24.23328 0 1 -0.0664,0.23786 3.0538287,1.7450451 24.23328 0 1 -3.5014,0.336645 3.0538287,1.7450451 24.23328 0 1 -2.06784,-2.843453 3.0538287,1.7450451 24.23328 0 1 0.2035,-0.176131 l -2.404368,-1.081865 a 3.9263513,1.8177552 24.23328 0 1 -4.230189,-0.0428 3.9263513,1.8177552 24.23328 0 1 -2.838677,-3.139013 l -2.716054,-1.222537 a 2.399437,1.5996246 24.23328 0 1 -2.806605,0.439482 2.399437,1.5996246 24.23328 0 1 -1.533739,-2.393142 L 81.68754,21.17867 a 4.6534534,1.6723348 24.23328 0 1 -0.005,0.02557 4.6534534,1.6723348 24.23328 0 1 -4.930395,-0.385817 4.6534534,1.6723348 24.23328 0 1 -3.556162,-3.43412 4.6534534,1.6723348 24.23328 0 1 0.02289,-0.01754 l -1.886099,-0.848964 a 4.2171922,1.7450451 24.23328 0 1 -0.02405,0.09627 4.2171922,1.7450451 24.23328 0 1 -4.56191,-0.138565 4.2171922,1.7450451 24.23328 0 1 -3.128532,-3.323027 4.2171922,1.7450451 24.23328 0 1 0.08282,-0.06982 l -1.903909,-0.856981 a 2.7629879,1.5269144 24.23328 0 1 -0.0069,0.02475 2.7629879,1.5269144 24.23328 0 1 -3.145264,0.259202 2.7629879,1.5269144 24.23328 0 1 -1.89324,-2.5271137 2.7629879,1.5269144 24.23328 0 1 0.02111,-0.01834 z M 79.754829,30.621139 a 3.4173796,3.4173796 0 0 1 1.713869,4.519698 3.4173796,3.4173796 0 0 1 -4.518897,1.712089 3.4173796,3.4173796 0 0 1 -1.714671,-4.517918 3.4173796,3.4173796 0 0 1 4.519699,-1.713869 z m -23.3978,-10.37323 a 3.4173796,3.4173796 0 0 1 1.713869,4.519698 3.4173796,3.4173796 0 0 1 -4.519698,1.713869 3.4173796,3.4173796 0 0 1 -1.713869,-4.519699 3.4173796,3.4173796 0 0 1 4.519698,-1.713868 z m 47.088251,21.514319 a 3.4173796,3.4173796 0 0 1 1.71387,4.519699 3.4173796,3.4173796 0 0 1 -4.5197,1.713869 3.4173796,3.4173796 0 0 1 -1.713872,-4.519699 3.4173796,3.4173796 0 0 1 4.519702,-1.713869 z M 63.522092,37.986276 a 3.4173796,3.4173796 0 0 1 1.714671,4.517917 3.4173796,3.4173796 0 0 1 -4.519699,1.713869 3.4173796,3.4173796 0 0 1 -1.713869,-4.519699 3.4173796,3.4173796 0 0 1 4.518897,-1.712087 z m 22.821861,10.591626 a 3.4173796,3.4173796 0 0 1 1.714671,4.517917 3.4173796,3.4173796 0 0 1 -4.519699,1.713869 3.4173796,3.4173796 0 0 1 -1.713869,-4.519698 3.4173796,3.4173796 0 0 1 4.518897,-1.712088 z m 5.90011,17.008351 a 3.4173796,3.4173796 0 0 1 1.71289,4.517116 3.4173796,3.4173796 0 0 1 -4.517918,1.71467 3.4173796,3.4173796 0 0 1 -1.713869,-4.519699 3.4173796,3.4173796 0 0 1 4.518897,-1.712087 z M 46.12335,45.462708 a 3.4173796,3.4173796 0 0 1 1.713869,4.519698 3.4173796,3.4173796 0 0 1 -4.519698,1.713868 3.4173796,3.4173796 0 0 1 -1.713869,-4.519697 3.4173796,3.4173796 0 0 1 4.519698,-1.713869 z m 22.508712,10.930449 a 3.4173796,3.4173796 0 0 1 1.71467,4.517917 3.4173796,3.4173796 0 0 1 -4.519698,1.713869 3.4173796,3.4173796 0 0 1 -1.712088,-4.518897 3.4173796,3.4173796 0 0 1 4.517116,-1.712889 z M 53.235463,61.90069 a 3.4173796,3.4173796 0 0 1 1.713869,4.519699 3.4173796,3.4173796 0 0 1 -4.519699,1.713869 3.4173796,3.4173796 0 0 1 -1.712088,-4.518897 3.4173796,3.4173796 0 0 1 4.517918,-1.714671 z m 22.24512,10.811804 a 3.4173796,3.4173796 0 0 1 1.714671,4.517917 3.4173796,3.4173796 0 0 1 -4.519699,1.713869 3.4173796,3.4173796 0 0 1 -1.713869,-4.519698 3.4173796,3.4173796 0 0 1 4.518897,-1.712088 z m -16.304407,7.172237 a 3.4173796,3.4173796 0 0 1 1.712088,4.518897 3.4173796,3.4173796 0 0 1 -4.517115,1.712889 3.4173796,3.4173796 0 0 1 -1.714672,-4.517917 3.4173796,3.4173796 0 0 1 4.519699,-1.713869 z m 22.483038,10.278476 a 3.4173796,3.4173796 0 0 1 1.713869,4.519699 3.4173796,3.4173796 0 0 1 -4.519699,1.713872 3.4173796,3.4173796 0 0 1 -1.713869,-4.519702 3.4173796,3.4173796 0 0 1 4.519699,-1.713869 z M 34.523188,69.10716 a 3.4173796,3.4173796 0 0 1 1.713869,4.519698 3.4173796,3.4173796 0 0 1 -4.518897,1.712088 3.4173796,3.4173796 0 0 1 -1.71289,-4.517116 3.4173796,3.4173796 0 0 1 4.517918,-1.71467 z"
       style="display:inline;fill:#fffce5"
       id="path115" />
    <circle
       style="fill:#ffc229;fill-opacity:1;stroke-width:1.28058"
       id="path116"
       cx="84.925522"
       cy="53.223877"
       r="25.884834" />
    <path
       style="fill:#fffce5;fill-opacity:1;stroke:none"
       d="m 77.509083,34.464639 c -0.53197,-1.153249 1.849375,-4.893213 8.348253,-4.506289 2.606563,0.13159 5.428006,0.914673 8.089344,2.468502 0.371233,0.216746 0.730745,0.443518 1.078191,0.678932 2.854175,1.878958 4.908403,4.352893 6.079529,6.850342 1.11312,2.135311 1.22156,4.337245 0.83046,5.792177 -0.39855,1.48261 -1.20557,2.036111 -1.88561,1.949629 -0.672636,-0.08554 -1.272732,-0.754305 -1.927139,-1.401547 -0.691596,-0.684025 -1.62783,-1.45915 -2.66476,-2.501612 -1.382422,-1.234371 -2.90135,-2.32651 -4.986705,-3.636408 -0.249957,-0.150366 -0.502938,-0.299758 -0.758263,-0.447226 -1.843346,-1.064662 -3.491272,-1.847123 -5.10903,-2.442897 -1.960478,-0.708487 -3.039675,-0.975591 -4.524693,-1.396562 -1.221783,-0.34635 -2.235139,-0.682018 -2.569577,-1.407041 z"
       id="path117"
       inkscape:path-effect="#path-effect117"
       inkscape:original-d="m 77.509083,34.464639 c 9.639602,-4.446548 23.483477,5.81529 22.540167,13.233258"
       sodipodi:nodetypes="cc"
       transform="rotate(-4.8751632,86.518283,35.257019)" />
  </g>
</svg>
